<svg width="32" height="32" viewBox="0 0 32 32" fill="none" xmlns="http://www.w3.org/2000/svg">
  <!-- Background circle -->
  <circle cx="16" cy="16" r="16" fill="url(#logoGradient)"/>

  <!-- Receipt (left side) - larger and more visible -->
  <g id="receipt">
    <!-- Receipt paper background -->
    <rect x="5" y="5" width="12" height="22" rx="1" fill="white" opacity="0.95" stroke="white" stroke-width="0.5"/>

    <!-- Receipt lines (transaction items) -->
    <line x1="8" y1="10" x2="15" y2="10" stroke="url(#logoGradient)" stroke-width="1.2" stroke-linecap="round"/>
    <line x1="8" y1="14" x2="15" y2="14" stroke="url(#logoGradient)" stroke-width="1.2" stroke-linecap="round"/>
    <line x1="8" y1="18" x2="15" y2="18" stroke="url(#logoGradient)" stroke-width="1.2" stroke-linecap="round"/>
    <line x1="8" y1="22" x2="13" y2="22" stroke="url(#logoGradient)" stroke-width="1.2" stroke-linecap="round"/>

    <!-- Receipt fold/tear at bottom -->
    <path d="M 5 24 Q 8 26 11 24 Q 14 26 17 24" stroke="url(#logoGradient)" stroke-width="1" fill="none" stroke-linecap="round"/>
  </g>

  <!-- Chart (right side) - larger bars -->
  <g id="chart">
    <!-- Chart bars showing growth -->
    <rect x="17" y="21" width="2.5" height="5" fill="white" opacity="0.95" rx="0.4"/>
    <rect x="21" y="17" width="2.5" height="9" fill="white" opacity="0.95" rx="0.4"/>
    <rect x="25" y="12" width="2.5" height="14" fill="white" opacity="0.95" rx="0.4"/>

    <!-- Chart axis line -->
    <line x1="16" y1="26" x2="28" y2="26" stroke="white" stroke-width="1" opacity="0.7" stroke-linecap="round"/>

    <!-- Upward trend indicator (arrow) -->
    <path d="M 20.5 8 L 23 8 L 21.75 5.5 Z" fill="white" opacity="0.95"/>
  </g>

  <!-- Checkmark badge (warranty verification) -->
  <circle cx="27" cy="7" r="3.5" fill="white" opacity="0.95"/>
  <path d="M 25.2 7 L 26.2 8.2 L 28.5 5.8" stroke="url(#logoGradient)" stroke-width="1.3" fill="none" stroke-linecap="round" stroke-linejoin="round"/>

  <!-- Gradient definition -->
  <defs>
    <linearGradient id="logoGradient" x1="0%" y1="0%" x2="100%" y2="100%">
      <stop offset="0%" style="stop-color:#6366f1;stop-opacity:1" />
      <stop offset="100%" style="stop-color:#8b5cf6;stop-opacity:1" />
    </linearGradient>
  </defs>
</svg> 